<svg xmlns="http://www.w3.org/2000/svg" xmlns:svg="http://www.w3.org/2000/svg" id="svg830" width="100" height="100" version="1.1" viewBox="0 0 100 100"><metadata id="metadata827"/><path id="path843" fill="#4ccdac" stroke-width=".381" d="m 42,20 c -2,0 -2,2 -2,2 v 2 c 0,0 0,2 2,2 2,0 2,-2 2,-2 v -2 c 0,0 0,-2 -2,-2 z m 8,7 c -2,0 -2,2 -2,2 v 2 c 0,0 0,-2 -2,-2 -2,0 -2,2 -2,2 v 9 c 0,0 0,2 -2,2 -2,0 -2,-2 -2,-2 v -5 c 0,0 0,-2 -2,-2 -2,0 -2,2 -2,2 V 53 H 64 V 32 c 0,0 0,-2 -2,-2 -2,0 -2,2 -2,2 v 10 c 0,0 0,2 -2,2 -2,0 -2,-2 -2,-2 v -7 c 0,0 0,-2 -2,-2 -2,0 -2,2 -2,2 v -6 c 0,0 0,-2 -2,-2 z" opacity=".4"/><path id="path845" fill="#4ccdac" stroke-width=".381" d="m 46,29 c -2,0 -2,2 -2,2 v 15 c 0,0 0,2 -2,2 -2,0 -2,-2 -2,-2 V 35 c 0,0 0,-2 -2,-2 -2,0 -2,2 -2,2 V 53 H 64 V 39 c 0,0 0,-2 -2,-2 -2,0 -2,2 -2,2 v 8 c 0,0 0,2 -2,2 -2,0 -2,-2 -2,-2 V 35 c 0,0 0,-2 -2,-2 -2,0 -2,2 -2,2 v 10 c 0,0 0,2 -2,2 -2,0 -2,-2 -2,-2 V 31 c 0,0 0,-2 -2,-2 z" opacity=".55"/><path id="path832" fill="#4e91e4" stroke-width=".345" d="m 64,55 c 1,0 1,1 1,1 v 5 c 0,0 0,1 -1,1 H 51 c 0,0 -2,0 -2,2 v 2 h 1 v -2 c 0,-1 1,-1 1,-1 h 13 c 2,0 2,-2 2,-2 v -5 c 0,0 0,-2 -1.999999,-2 z" opacity=".6"/><path id="path834" fill="#4e91e4" stroke-width=".381" d="m 38,51 h 24 c 0,0 2,0 2,2 v 3 c 0,2 -2,2 -2,2 H 38 c 0,0 -2,0 -2,-2 v -3 c 0,-2 2,-2 2,-2 z"/><path id="path933" fill="#4e91e4" d="m 70,25 c 0,0 0,-1 -1,-1 0,0 -2,0 -2,-1 0,-1 2,-1 2,-1 0,0 1,0 1,-1 0,0 0,-2 1,-2 1,0 1,2 1,2 0,0 0,1 1,1 0,0 2,0 2,1 0,1 -2,1 -2,1 0,0 -1,0 -1,1 0,0 0,2 -1,2 -1,0 -1,-2 -1,-2 z"/><path id="path943" fill="#4e91e4" d="m 20,48 c -1.656854,0 -3,1.343146 -3,3 0,1.656854 1.343146,3 3,3 1.656854,0 3,-1.343146 3,-3 0,-1.656854 -1.343146,-3 -3,-3 z m 0,2 c 0.552285,0 1,0.447715 1,1 0,0.552285 -0.447715,1 -1,1 -0.552285,0 -1,-0.447715 -1,-1 0,-0.552285 0.447715,-1 1,-1 z" opacity=".5"/><path id="path950" fill="#4e91e4" d="m 30,75 c 0,1.104569 -0.895431,2 -2,2 -1.104569,0 -2,-0.895431 -2,-2 0,-1.104569 0.895431,-2 2,-2 1.104569,0 2,0.895431 2,2 z" opacity="1"/><path id="path953" fill="#4e91e4" d="m 75,80 c 0,0 0,-1 -1,-1 0,0 -2,0 -2,-1 0,-1 2,-1 2,-1 0,0 1,0 1,-1 0,0 0,-2 1,-2 1,0 1,2 1,2 0,0 0,1 1,1 0,0 2,0 2,1 0,1 -2,1 -2,1 0,0 -1,0 -1,1 0,0 0,2 -1,2 -1,0 -1,-2 -1,-2 z" opacity=".7"/><path id="path955" fill="#4e91e4" d="m 80,43 c -1.656854,0 -3,1.343146 -3,3 0,1.656854 1.343146,3 3,3 1.656854,0 3,-1.343146 3,-3 0,-1.656854 -1.343146,-3 -3,-3 z m 0,2 c 0.552285,0 1,0.447715 1,1 0,0.552285 -0.447715,1 -1,1 -0.552285,0 -1,-0.447715 -1,-1 0,-0.552285 0.447715,-1 1,-1 z" opacity=".9"/><path id="path957" fill="#4e91e4" d="m 25,30 a 1,1 0 0 1 -1,1 1,1 0 0 1 -1,-1 1,1 0 0 1 1,-1 1,1 0 0 1 1,1 z" opacity=".8"/><path id="path4941" fill="#4e91e4" stroke-width=".667" d="m 47,67 v 6 c 0,0 0,2 2,2 h 1 c 2,0 2,-2 2,-2 v -6 c 0,0 0,-2 -2,-2 h -1 c -2,0 -2,2 -2,2 z"/></svg>