<svg xmlns="http://www.w3.org/2000/svg" xmlns:svg="http://www.w3.org/2000/svg" id="svg8" width="800" height="400" version="1.1" viewBox="0 0 211.667 105.833"><metadata id="metadata2"/><g id="g6" fill="#546778"><path id="path4" d="m 101.6,49.477084 c -2.38125,0 -2.38125,2.38125 -2.38125,2.38125 0,0.79375 1.32292,0.79375 1.32292,0 C 100.54167,50.8 101.6,50.8 101.6,50.8 c 0,0 1.05833,0 1.05833,1.058334 -8e-5,0.79375 1.32292,0.79375 1.32292,0 0,0 0,-2.38125 -2.38125,-2.38125 z m 8.46667,0 c -2.38125,0 -2.38125,2.38125 -2.38125,2.38125 0,0.79375 1.32291,0.79375 1.32292,0 0,0 0,-1.058334 1.05833,-1.058334 1.05833,0 1.05833,1.058334 1.05833,1.058334 0,0.79375 1.32292,0.79375 1.32292,0 0,0 0,-2.38125 -2.38125,-2.38125 z m -5.82084,3.968753 c 0,0 -0.52916,0 -0.52916,0.529167 0,0 0,2.116667 2.11666,2.116667 2.11667,0 2.11667,-2.116667 2.11667,-2.116667 0,-0.529167 -0.52916,-0.529167 -0.52916,-0.529167 z"/></g></svg>