<svg xmlns="http://www.w3.org/2000/svg" xmlns:svg="http://www.w3.org/2000/svg" id="svg830" width="100" height="100" version="1.1" viewBox="0 0 100 100"><metadata id="metadata827"/><path id="path1080" fill="#4e91e4" d="m 61,66 c 0,0 0,4 4,4 4,0 4,-4 4,-4 V 24 c 0,0 0,-4 -4,-4 -4,0 -4,4 -4,4 z"/><path id="path3013" fill="#4e91e4" d="m 79,35 c 0,0 -2,2 -4,0 -2,-2 0,-4 0,-4 l 6,-6 c 0,0 2,-2 4,0 2,2 0,4 0,4 z" opacity=".8"/><path id="path3015" fill="#4e91e4" d="M 61,25 31,35 v 20 l 30,10 z" opacity=".5"/><path id="path3017" fill="#4e91e4" d="m 31,35 c 0,0 0,-2 -2,-2 H 13 c 0,0 -2,0 -2,2 v 20 c 0,0 0,2 2,2 h 16 c 0,0 2,0 2,-2 z" opacity="1"/><path id="path3019" fill="#4e91e4" d="M 11,37 H 9 c 0,0 -2,0 -2,2 v 12 c 0,0 0,2 2,2 h 2 z" opacity=".5"/><path id="path3021" fill="#4e91e4" d="m 26,57 v 18 c 0,0 0,2 -2,2 h -6 c 0,0 -2,0 -2,-2 V 57 Z" opacity=".5"/><path id="path3023" fill="#4e91e4" d="m 79,55 c 0,0 -2,-2 -4,0 -2,2 0,4 0,4 l 6,6 c 0,0 2,2 4,0 2,-2 0,-4 0,-4 z" opacity=".8"/><path id="path3025" fill="#4e91e4" d="m 80,48 c 0,0 -3,0 -3,-3 0,-3 3,-3 3,-3 h 10 c 0,0 3,0 3,3 0,3 -3,3 -3,3 z" opacity=".8"/><path id="path3048" fill="#4e91e4" d="m 69,49 c 0,0 2,-1 2,-4 0,-3 -2,-4 -2,-4 z" opacity=".5"/></svg>