<svg xmlns="http://www.w3.org/2000/svg" xmlns:svg="http://www.w3.org/2000/svg" id="svg830" width="100" height="100" version="1.1" viewBox="0 0 100 100"><metadata id="metadata827"/><path id="path2749" fill="#4e91e4" d="m 50,10.5 c -0.5,0 -1,0.5 -2,1.5 -15,15 -12,30 -12,30 -3.999999,4.000001 -4,12 0,16 0,0 1.000001,1 2,0 3.000001,-3 4,-6 4,-6 l 3,3 h 10 l 3,-3 c 0,0 1,3 4,6 0,0 1,1 2,0 4,-4 4,-12 0,-16 0,0 3,-15 -12,-30 -1,-1 -1.5,-1.5 -2,-1.5 z" opacity=".5"/><path id="path2744" fill="#4e91e4" stroke-width="1.62" d="M 50 10.5 C 49.5 10.5 49 11 48 12 C 33 27 36 42 36 42 C 32.000001 46.000001 32 54 36 58 C 36 58 37.000001 59 38 58 C 41.000001 55 42 52 42 52 L 45 55 L 55 55 L 58 52 C 58 52 59 55 62 58 C 62 58 63 59 64 58 C 68 54 68 46 64 42 C 64 42 67 27 52 12 C 51 11 50.5 10.5 50 10.5 z M 50 27.757812 C 51.085786 27.757812 52.171573 28.171573 53 29 C 54.656854 30.656854 54.656854 33.343146 53 35 C 51.343146 36.656854 48.656854 36.656854 47 35 C 45.343146 33.343146 45.343146 30.656854 47 29 C 47.828427 28.171573 48.914214 27.757812 50 27.757812 z"/><path id="path1023" fill="#4e91e4" d="m 45,59 c 0,0 -0.999999,5 3,9 2.000001,2.000001 2.000001,2.000001 4.000001,0 C 56.000001,64 55,59 55,59 Z" opacity=".7"/><path id="path2692" fill="#4e91e4" d="M 35,70 C 24.850967,70 19.864538,75.149267 17.402344,80.222656 16.6724,80.08231 15.877037,80 15,80 5,80 5,90 5,90 h 10 10 50 10 10 c 0,0 0,-10 -10,-10 -0.877037,0 -1.6724,0.08231 -2.402344,0.222656 C 80.135462,75.149267 75.149033,70 65,70 57.594934,70 52.936708,72.744049 50,76.197266 47.063292,72.744049 42.405066,70 35,70 Z" opacity=".7"/></svg>