<svg xmlns="http://www.w3.org/2000/svg" xmlns:svg="http://www.w3.org/2000/svg" id="svg830" width="100" height="100" version="1.1" viewBox="0 0 100 100"><metadata id="metadata827"/><path id="path3254" fill="#4e91e4" d="m 45,58 c 3,1 7,1 10,0 l 20,-7 4,19 C 80,75 65,80 50,80 35,80 20,75 21,70 l 4,-19 z" opacity=".8"/><path id="path814" fill="#4e91e4" d="m 5,35 c -3,1 -3,4 0,5 l 40,14 c 3,1 7,1 10,0 L 95,40 c 3,-1 3,-4 0,-5 L 55,21 c -3,-1 -7,-1 -10,0 z"/><path id="path820" fill="#4e91e4" d="m 78,40 v 4 c 5.98275,0 6.844357,5.08416 6.970703,6.570312 C 83.795896,51.267131 83,52.535032 83,54 c 0,1.319329 0.647706,2.47844 1.632812,3.207031 L 82,73 c 0,0 0,2 2,2 h 6 c 2,0 2,-2 2,-2 L 89.367188,57.207031 C 90.352294,56.47844 91,55.319329 91,54 91,52.514774 90.180349,51.234917 88.978516,50.544922 88.838342,48.49604 87.676031,40 78,40 Z"/></svg>