<svg xmlns="http://www.w3.org/2000/svg" xmlns:svg="http://www.w3.org/2000/svg" id="svg830" width="100" height="100" version="1.1" viewBox="0 0 100 100"><metadata id="metadata827"/><path id="path1049" fill="#4e91e4" d="m 10,87 c 0,0 0,3 3,3 h 32 c 0,0 3,0 3,-3 V 58 c 0,0 0,-3 -3,-3 H 13 c 0,0 -3,0 -3,3 z"/><path id="path1051" fill="#fff" d="m 25,55 v 17 h 8 V 55 Z" opacity=".5"/><path id="path1053" fill="#4e91e4" d="m 52,87 c 0,0 0,3 3,3 h 32 c 0,0 3,0 3,-3 V 58 c 0,0 0,-3 -3,-3 H 55 c 0,0 -3,0 -3,3 z"/><path id="path1055" fill="#fff" d="m 67,55 v 17 h 8 V 55 Z" opacity=".5"/><path id="path1057" fill="#4e91e4" d="m 31,48 c 0,0 0,3 3,3 h 32 c 0,0 3,0 3,-3 V 19 c 0,0 0,-3 -3,-3 H 34 c 0,0 -3,0 -3,3 z"/><path id="path1059" fill="#fff" d="m 46,16 v 17 h 8 V 16 Z" opacity=".5"/></svg>