<svg xmlns="http://www.w3.org/2000/svg" xmlns:svg="http://www.w3.org/2000/svg" id="svg830" width="100" height="100" version="1.1" viewBox="0 0 100 100"><metadata id="metadata827"/><path id="path1080" fill="#4e91e4" d="m 25,85 c 0,0 0,5 5,5 h 40 c 0,0 5,0 5,-5 V 15 c 0,0 0,-5 -5,-5 H 30 c 0,0 -5,0 -5,5 z"/><path id="path2350" fill="#fff" stroke-width="1.333" d="m 54,83 a 4,4 0 0 1 -4,4 4,4 0 0 1 -4,-4 4,4 0 0 1 4,-4 4,4 0 0 1 4,4 z" opacity=".8"/><path id="path3250" fill="#fff" d="m 30,72 c 0,0 0,3 3,3 3,0 34,0 34,0 0,0 3,0 3,-3 0,-3 0,-54 0,-54 0,0 0,-3 -3,-3 -3,0 -34,0 -34,0 0,0 -3,0 -3,3 0,3 0,54 0,54 z" opacity=".5"/></svg>