<svg xmlns="http://www.w3.org/2000/svg" xmlns:svg="http://www.w3.org/2000/svg" id="svg830" width="100" height="100" version="1.1" viewBox="0 0 100 100"><metadata id="metadata827"/><path id="path3376" fill="#4e91e4" d="M 78.777344,37.185547 78.566406,38.25 l -0.314453,1.205078 -0.04687,0.132813 1.892578,0.648437 0.05664,-0.166016 0.01172,-0.03516 0.0098,-0.03516 0.333985,-1.267578 0.0078,-0.0293 0.0059,-0.03125 0.222656,-1.134766 0.0078,-0.03711 0.0039,-0.03711 0.164063,-1.345703 -1.986328,-0.240235 z m -2.300782,6.189453 -0.421874,0.617188 -0.490235,0.625 -0.529297,0.595703 -0.578125,0.5625 -0.105469,0.0918 1.289063,1.527343 0.130859,-0.109375 0.02734,-0.02344 0.02539,-0.02539 0.634765,-0.61914 0.02539,-0.02539 0.02344,-0.02539 0.576172,-0.646484 0.02148,-0.02539 0.02148,-0.02539 0.521485,-0.669922 0.01953,-0.02344 0.01758,-0.02539 0.46875,-0.685547 0.02539,-0.03516 0.01953,-0.03711 0.195312,-0.34375 -1.738281,-0.988281 z m -5.828124,4.699219 -0.986329,0.322265 -1.015625,0.25 -1.033203,0.175782 0.333985,1.970703 1.054687,-0.177735 0.03711,-0.0059 0.03516,-0.0098 1.115234,-0.273437 0.03711,-0.0078 0.03516,-0.01172 1.039062,-0.339844 0.03711,-0.01172 0.03516,-0.01563 0.636719,-0.263672 L 71.2422,47.828055 Z M 41,51 h 4 v -2 h -4 z m 9,0 h 4 v -2 h -4 z m 9,0 h 4 v -2 h -4 z m -22.671875,-1.523438 -0.03125,0.0059 -0.0293,0.0078 L 35,49.824219 l -0.03516,0.0098 -0.03516,0.01172 -1.355469,0.464844 -0.04102,0.01367 -0.03906,0.01758 -0.871094,0.384765 0.808594,1.830079 0.833984,-0.369141 1.275391,-0.4375 1.207031,-0.316406 0.263672,-0.05273 -0.386719,-1.96289 z m -7.894531,4.015626 -0.02539,0.02344 -0.02539,0.02539 -0.61914,0.634765 -0.02539,0.02539 -0.02344,0.02734 -0.585938,0.695312 -0.02539,0.0293 -0.02148,0.03125 -0.548828,0.757813 -0.02148,0.03125 -0.02148,0.0332 -0.277343,0.455078 1.705078,1.044922 0.259765,-0.423829 0.509766,-0.705078 0.539062,-0.638672 0.5625,-0.574218 0.521485,-0.466797 -1.330078,-1.492188 z m -4.033203,7.433593 -0.0098,0.03516 -0.0059,0.03711 -0.203125,1.195312 -0.0059,0.0332 -0.002,0.03516 -0.126953,1.277343 -0.002,0.0332 -0.002,0.0332 -0.02344,0.783203 1.998047,0.0625 0.02344,-0.744141 0.11914,-1.21875 0.19336,-1.134765 0.160156,-0.650391 -1.94336,-0.476563 z M 24,72.419922 h 2 v -4 h -2 z" opacity=".6"/><path id="path4003" fill="#4e91e4" d="m 10,73 v 15 c 0,0 0,2 2,2 h 26 c 0,0 2,0 2,-2 V 73 Z" opacity=".1"/><path id="path834" fill="#4e91e4" d="m 10,73 v -1 c 0,0 0,-2 2,-2 h 26 c 2,0 2,2 2,2 v 1 z"/><path id="path836" fill="#fff" stroke-width=".5" d="m 12,71 c -0.276142,0 -0.5,0.223858 -0.5,0.5 0,0.276142 0.223858,0.5 0.5,0.5 0.276142,0 0.5,-0.223858 0.5,-0.5 C 12.5,71.223858 12.276142,71 12,71 Z m 2,0 c -0.276143,0 -0.5,0.223858 -0.5,0.5 0,0.276142 0.223857,0.5 0.5,0.5 0.276143,0 0.5,-0.223858 0.5,-0.5 C 14.5,71.223858 14.276143,71 14,71 Z m 2,0 c -0.276143,0 -0.5,0.223858 -0.5,0.5 0,0.276142 0.223857,0.5 0.5,0.5 0.276142,0 0.5,-0.223858 0.5,-0.5 C 16.5,71.223858 16.276142,71 16,71 Z" opacity=".8"/><path id="path933" fill="#4e91e4" d="m 74,88 c 0,0 0,-1 -1,-1 0,0 -2,0 -2,-1 0,-1 2,-1 2,-1 0,0 1,0 1,-1 0,0 0,-2 1,-2 1,0 1,2 1,2 0,0 0,1 1,1 0,0 2,0 2,1 0,1 -2,1 -2,1 0,0 -1,0 -1,1 0,0 0,2 -1,2 -1,0 -1,-2 -1,-2 z"/><path id="path943" fill="#4e91e4" d="m 87,59 c -1.656854,0 -3,1.343146 -3,3 0,1.656854 1.343146,3 3,3 1.656854,0 3,-1.343146 3,-3 0,-1.656854 -1.343146,-3 -3,-3 z m 0,2 c 0.552285,0 1,0.447715 1,1 0,0.552285 -0.447715,1 -1,1 -0.552285,0 -1,-0.447715 -1,-1 0,-0.552285 0.447715,-1 1,-1 z" opacity=".5"/><path id="path950" fill="#4e91e4" d="m 54,77 c 0,1.104569 -0.895431,2 -2,2 -1.104569,0 -2,-0.895431 -2,-2 0,-1.104569 0.895431,-2 2,-2 1.104569,0 2,0.895431 2,2 z" opacity="1"/><path id="path953" fill="#4e91e4" d="m 44,18 c 0,0 0,-1 -1,-1 0,0 -2,0 -2,-1 0,-1 2,-1 2,-1 0,0 1,0 1,-1 0,0 0,-2 1,-2 1,0 1,2 1,2 0,0 0,1 1,1 0,0 2,0 2,1 0,1 -2,1 -2,1 0,0 -1,0 -1,1 0,0 0,2 -1,2 -1,0 -1,-2 -1,-2 z" opacity=".7"/><path id="path955" fill="#4e91e4" d="m 13,40 c -1.656854,0 -3,1.343146 -3,3 0,1.656854 1.343146,3 3,3 1.656854,0 3,-1.343146 3,-3 0,-1.656854 -1.343146,-3 -3,-3 z m 0,2 c 0.552285,0 1,0.447715 1,1 0,0.552285 -0.447715,1 -1,1 -0.552285,0 -1,-0.447715 -1,-1 0,-0.552285 0.447715,-1 1,-1 z" opacity=".9"/><path id="path957" fill="#4e91e4" d="m 17,16 a 1,1 0 0 1 -1,1 1,1 0 0 1 -1,-1 1,1 0 0 1 1,-1 1,1 0 0 1 1,1 z" opacity=".8"/><path id="path4001" fill="#4e91e4" d="m 52,48 -2,-2 h -6 c 0,0 -2,0 -2,-2 V 32 c 0,0 0,-2 2,-2 h 16 c 0,0 2,0 2,2 v 12 c 0,0 0,2 -2,2 h -6 z" opacity="1"/><path id="path4007" fill="#fff" d="m 50,34 -4,4 4,4 1,-1 -3,-3 3,-3 z m 4,0 -1,1 3,3 -3,3 1,1 4,-4 z" opacity=".8"/><path id="path4012" fill="#4ccdac" d="m 82,32 c 0,1.104569 -0.895431,2 -2,2 -1.104569,0 -2,-0.895431 -2,-2 0,-1.104569 0.895431,-2 2,-2 1.104569,0 2,0.895431 2,2 z" opacity="1"/><path id="path4626" fill="#4ccdac" d="m 80,29 -2,-2 h -6 c 0,0 -2,0 -2,-2 V 12 c 0,0 0,-2 2,-2 h 16 c 0,0 2,0 2,2 v 13 c 0,0 -0.0017,2.081586 -2,2 h -6 z"/><path id="path4628" fill="#fff" stroke-width=".058" d="m 80,14 c 0,0 -3,0 -3,3 0,1.5 0.9,2.4 0.9,2.4 0,0 0.6,0.6 0.6,1.2 0,0 0,0.3 0.3,0.3 h 2.4 c 0.3,0 0.3,-0.3 0.3,-0.3 0,-0.6 0.6,-1.2 0.6,-1.2 0,0 0.9,-0.9 0.9,-2.4 0,-3 -3,-3 -3,-3 z m -1.5,7.8 v 0.6 c 0,0 0,1.2 1.5,1.2 1.5,0 1.5,-1.2 1.5,-1.2 v -0.6 c 0,0 0,-0.3 -0.3,-0.3 h -2.4 c -0.3,0 -0.3,0.3 -0.3,0.3 z" opacity=".9"/><path id="path4630" fill="#fff" d="m 73.785156,12.591797 c -0.464039,-0.06629 -0.729549,0.46381 -0.199218,0.994141 L 75,15 c 0.707107,0.707107 1.414138,7.6e-5 0.707031,-0.707031 l -1.414062,-1.414063 c -0.176777,-0.176777 -0.353133,-0.265012 -0.507813,-0.287109 z m 12.429688,0 c -0.15468,0.0221 -0.331036,0.110332 -0.507813,0.287109 l -1.414062,1.414063 C 83.585862,15.000076 84.292893,15.707107 85,15 l 1.414062,-1.414062 c 0.530331,-0.530331 0.264821,-1.060432 -0.199218,-0.994141 z M 73,17 c -1,0 -1,1 0,1 h 2 c 1,0 1,-1 0,-1 z m 12,0 c -1,0 -1,1 0,1 h 2 c 1,0 1,-1 0,-1 z m -9.492188,2.712891 C 75.353133,19.734988 75.176777,19.823223 75,20 l -1.414062,1.414062 c -0.707108,0.707108 -7.6e-5,1.414139 0.707031,0.707032 l 1.414062,-1.414063 c 0.530331,-0.53033 0.26482,-1.060432 -0.199219,-0.99414 z m 8.984376,0 c -0.464039,-0.06629 -0.72955,0.46381 -0.199219,0.99414 l 1.414062,1.414063 c 0.707107,0.707107 1.414138,7.6e-5 0.707031,-0.707032 L 85,20 c -0.176777,-0.176777 -0.353133,-0.265012 -0.507812,-0.287109 z" opacity=".9"/><path id="path9807" fill="#4e91e4" d="m 37,77 c 0,0 1,0 1,1 v 4 c 0,0 0,1 -1,1 H 13 c 0,0 -1,0 -1,-1 v -4 c 0,0 0,-1 1,-1 z" opacity=".8"/><path id="path9809" fill="#4e91e4" d="m 37,74 c 1,0 1,1 1,1 0,0 0,1 -1,1 H 20 c 0,0 -1,0 -1,-1 0,0 0,-1 1,-1 z" opacity=".5"/><path id="path9811" fill="#4ccdac" d="m 17,74 c 1,0 1,1 1,1 0,0 0,1 -1,1 h -4 c 0,0 -1,0 -1,-1 0,0 0,-1 1,-1 z"/><path id="path9813" fill="#4e91e4" d="m 13,84 c -1,0 -1,1 -1,1 v 2 c 0,1 1,1 1,1 h 6 c 1,0 1,-1 1,-1 v -2 c 0,-1 -1,-1 -1,-1 z m 9,0 c -1,0 -1,1 -1,1 v 2 c 0,1 1,1 1,1 h 6 c 1,0 1,-1 1,-1 v -2 c 0,-1 -1,-1 -1,-1 z m 9,0 c -1,0 -1,1 -1,1 v 2 c 0,1 1,1 1,1 h 6 c 1,0 1,-1 1,-1 v -2 c 0,-1 -1,-1 -1,-1 z" opacity=".5"/></svg>