<svg xmlns="http://www.w3.org/2000/svg" width="50" height="50" version="1.1" viewBox="0 0 50 50"><path d="m41.25 7.5c1.25 0 1.25 1.25 1.25 1.25v2.5c0 1.25-1.25 1.25-1.25 1.25h-32.5c-1.25 0-1.25-1.25-1.25-1.25v-2.5c0-1.25 1.25-1.25 1.25-1.25zm0 10c1.25 0 1.25 1.25 1.25 1.25v2.5c0 1.25-1.25 1.25-1.25 1.25h-32.5c-1.25 0-1.25-1.25-1.25-1.25v-2.5c0-1.25 1.25-1.25 1.25-1.25zm0 10c1.25 0 1.25 1.25 1.25 1.25v2.5c0 1.25-1.25 1.25-1.25 1.25h-32.5c-1.25 0-1.25-1.25-1.25-1.25v-2.5c0-1.25 1.25-1.25 1.25-1.25zm0 10c1.25 0 1.25 1.25 1.25 1.25v2.5c0 1.25-1.25 1.25-1.25 1.25h-32.5c-1.25 0-1.25-1.25-1.25-1.25v-2.5c0-1.25 1.25-1.25 1.25-1.25z"/></svg>