<svg xmlns="http://www.w3.org/2000/svg" width="50" height="50" version="1.1" viewBox="0 0 50 50"><path d="m23.75 7.5c-1.25 0-1.25 1.25-1.25 1.25v2.5c0 1.25 1.25 1.25 1.25 1.25h17.5c1.25 0 1.25-1.25 1.25-1.25v-2.5c0-1.25-1.25-1.25-1.25-1.25h-17.5zm-15 10c-1.25 0-1.25 1.25-1.25 1.25v2.5c0 1.25 1.25 1.25 1.25 1.25h32.5c1.25 0 1.25-1.25 1.25-1.25v-2.5c0-1.25-1.25-1.25-1.25-1.25h-32.5zm15 10c-1.25 0-1.25 1.25-1.25 1.25v2.5c0 1.25 1.25 1.25 1.25 1.25h17.5c1.25 0 1.25-1.25 1.25-1.25v-2.5c0-1.25-1.25-1.25-1.25-1.25h-17.5zm-15 10c-1.25 0-1.25 1.25-1.25 1.25v2.5c0 1.25 1.25 1.25 1.25 1.25h32.5c1.25 0 1.25-1.25 1.25-1.25v-2.5c0-1.25-1.25-1.25-1.25-1.25h-32.5z"/></svg>