<svg xmlns="http://www.w3.org/2000/svg" xmlns:svg="http://www.w3.org/2000/svg" id="svg4" width="50" height="50" version="1.1" viewBox="0 0 50 50"><metadata id="metadata10"/><path id="path1451" d="m 6.25,6.25 c 0,0 -2.5,0 -2.5,2.5 0,2.5 2.5,2.5 2.5,2.5 h 5 L 15,35 c -0.235671,0.261761 2.5,-1.25 2.5,-1.25 -5,0 -5,5 -5,5 0,0 0,5 5,5 5,0 5,-5 5,-5 0,0 0,-5 -5,-5 l 3.75,2.5 h 12.5 l 2.5,-2.5 c -5,0 -5,5 -5,5 0,0 0,5 5,5 5,0 5,-5 5,-5 0,0 0,-5 -5,-5 l 2.5,2.5 c 0,0 2.5,0 2.5,-2.5 0,-2.5 -2.5,-2.5 -2.5,-2.5 H 20 L 19.595523,28.75 40,27.5 c 1.934729,0 2.5,-1.25 2.5,-1.25 L 46.25,15 c 0.428902,-0.884543 0,-2.5 -1.25,-2.5 H 16.25 L 15,6.25 Z"/></svg>