<svg xmlns="http://www.w3.org/2000/svg" xmlns:svg="http://www.w3.org/2000/svg" id="svg4" width="50" height="50" version="1.1" viewBox="0 0 50 50"><metadata id="metadata10"/><path id="path7912" d="m 25,20 -6.25,-6.25 2.5,-2.5 c 0,0 1.25,-1.25 0,-2.5 C 20,7.5 18.75,7.5 18.75,7.5 h -7.5 c 0,0 -3.75,0 -3.75,3.75 v 7.5 c 0,0 0,1.25 1.25,2.5 1.25,1.25 2.5,0 2.5,0 L 13.75,19.023208 20,25 l -6.25,6.25 -2.5,-2.5 c 0,0 -1.25,-1.25 -2.5,0 C 7.5,30 7.5,31.25 7.5,31.25 v 7.5 c 0,0 0,3.75 3.75,3.75 h 7.5 c 0,0 1.25,0 2.5,-1.25 1.25,-1.25 0,-2.5 0,-2.5 L 18.75,36.25 25,30 l 6.25,6.25 -2.5,2.5 c 0,0 -1.25,1.25 0,2.5 1.25,1.25 2.5,1.25 2.5,1.25 h 7.5 c 0,0 3.75,0 3.75,-3.75 v -7.5 c 0,0 0,-1.25 -1.25,-2.5 -1.25,-1.25 -2.5,0 -2.5,0 l -2.5,2.5 L 30,25 l 6.25,-6.25 2.5,2.5 c 0,0 1.25,1.25 2.5,0 1.25,-1.25 1.25,-2.5 1.25,-2.5 v -7.5 c 0,0 0,-3.75 -3.75,-3.75 h -7.5 c 0,0 -1.25,0 -2.5,1.25 -1.25,1.25 0,2.5 0,2.5 l 2.5,2.5 z"/></svg>