<svg xmlns="http://www.w3.org/2000/svg" xmlns:svg="http://www.w3.org/2000/svg" id="svg4" width="50" height="50" version="1.1" viewBox="0 0 50 50"><metadata id="metadata10"/><path id="path816" d="M 8.75,5 C 8.75,5 5,5 5,8.75 V 35 H 45 V 8.75 C 45,8.75 45,5 41.25,5 Z m 2.5,3.75 h 27.5 c 2.5,0 2.5,2.5 2.5,2.5 v 17.5 c 0,2.5 -2.5,2.5 -2.5,2.5 h -27.5 c -2.5,0 -2.5,-2.5 -2.5,-2.5 v -17.5 c 0,-2.5 2.5,-2.5 2.5,-2.5 z"/><path id="path957" d="M 0,37.5 V 40 c 0,0 0,5 5,5 h 40 c 0,0 5,0 5,-5 V 37.5 H 30 c 0,0 0,2.5 -2.5,2.5 h -5 c 0,0 -2.5,0 -2.5,-2.5 z"/></svg>