<svg xmlns="http://www.w3.org/2000/svg" xmlns:svg="http://www.w3.org/2000/svg" id="svg4" width="50" height="50" version="1.1" viewBox="0 0 50 50"><metadata id="metadata10"/><path id="path822" d="M 2.5,10 C 0,10 0,12.5 0,12.5 v 25 c 0,0 0,2.5 2.5,2.5 h 45 C 50,40 50,37.5 50,37.5 v -25 c 0,0 0,-2.5 -2.5,-2.5 z m 7.5,5 h 30 c 0,5 5,5 5,5 v 10 c 0,0 -5,0 -5,5 H 10 C 10,30 5,30 5,30 V 20 c 0,0 5,0 5,-5 z m 15,2.5 c -3.75,0 -6.25,2.5 -6.25,7.5 0,5 2.5,7.5 6.25,7.5 3.75,0 6.25,-2.5 6.25,-7.5 0,-5 -2.5,-7.5 -6.25,-7.5 z"/></svg>