<svg xmlns="http://www.w3.org/2000/svg" xmlns:svg="http://www.w3.org/2000/svg" id="svg4" width="50" height="50" version="1.1" viewBox="0 0 50 50"><metadata id="metadata10"/><path id="path7912" d="m 18.75,13.75 2.5,-2.5 c 0,0 1.25,-1.25 0,-2.5 C 20,7.5 18.75,7.5 18.75,7.5 h -7.5 c 0,0 -3.75,0 -3.75,3.75 v 7.5 c 0,0 0,1.25 1.25,2.5 1.25,1.25 2.5,0 2.5,0 l 2.5,-2.226792 17.5,17.226792 -2.5,2.5 c 0,0 -1.25,1.25 0,2.5 1.25,1.25 2.5,1.25 2.5,1.25 h 7.5 c 0,0 3.75,0 3.75,-3.75 v -7.5 c 0,0 0,-1.25 -1.25,-2.5 -1.25,-1.25 -2.5,0 -2.5,0 l -2.5,2.5 z"/></svg>