<svg xmlns="http://www.w3.org/2000/svg" xmlns:svg="http://www.w3.org/2000/svg" id="svg4" width="50" height="50" version="1.1" viewBox="0 0 50 50"><metadata id="metadata10"/><path id="path816" d="m 5,15 c 0,0 -2.5,0 -2.5,2.5 v 15 c 0,0 0,2.5 2.5,2.5 h 40 c 0,0 2.5,0 2.5,-2.5 v -15 c 0,0 0,-2.5 -2.5,-2.5 h -3.75 v 8.75 c 0,0 0,1.25 -1.25,1.25 -1.25,0 -1.25,-1.25 -1.25,-1.25 V 15 h -5 v 5 c 0,0 0,1.25 -1.25,1.25 -1.25,0 -1.25,-1.25 -1.25,-1.25 v -5 h -5 v 8.75 c 0,0 0,1.25 -1.25,1.25 -1.25,0 -1.25,-1.25 -1.25,-1.25 V 15 h -5 v 5 c 0,0 0,1.25 -1.25,1.25 -1.25,0 -1.25,-1.25 -1.25,-1.25 v -5 h -5 v 8.75 c 0,0 0,1.25 -1.25,1.25 C 8.75,25 8.75,23.75 8.75,23.75 V 15 Z"/></svg>